<mxfile host="app.diagrams.net" modified="2023-11-09T00:17:57.959Z" agent="Mozilla/5.0 (Windows NT 10.0; Win64; x64) AppleWebKit/537.36 (KHTML, like Gecko) Chrome/119.0.0.0 Safari/537.36" etag="EOK1kh3bdiyysqOzP7y5" version="22.0.8" type="google">
  <diagram name="Page-1" id="sQkm6KDP3fwNAra3PlNF">
    <mxGraphModel grid="1" page="1" gridSize="10" guides="1" tooltips="1" connect="1" arrows="1" fold="1" pageScale="1" pageWidth="1169" pageHeight="827" math="0" shadow="0">
      <root>
        <mxCell id="0" />
        <mxCell id="1" parent="0" />
        <mxCell id="hlfoo49b2QJRz_j54Fa--24" value="" style="endArrow=classic;html=1;rounded=0;endSize=6;startSize=6;sourcePerimeterSpacing=5;jumpSize=9;" edge="1" parent="1">
          <mxGeometry width="50" height="50" relative="1" as="geometry">
            <mxPoint x="113" y="389" as="sourcePoint" />
            <mxPoint x="605" y="360" as="targetPoint" />
            <Array as="points">
              <mxPoint x="113" y="250" />
              <mxPoint x="606" y="250" />
            </Array>
          </mxGeometry>
        </mxCell>
        <mxCell id="hlfoo49b2QJRz_j54Fa--1" value="" style="html=1;dashed=0;whiteSpace=wrap;" vertex="1" parent="1">
          <mxGeometry x="1000" y="389" width="140" height="50" as="geometry" />
        </mxCell>
        <mxCell id="hlfoo49b2QJRz_j54Fa--2" value="" style="html=1;dashed=0;whiteSpace=wrap;" vertex="1" parent="1">
          <mxGeometry x="30" y="389" width="140" height="50" as="geometry" />
        </mxCell>
        <mxCell id="hlfoo49b2QJRz_j54Fa--7" value="&lt;font style=&quot;font-size: 18px;&quot;&gt;ผู้ดูแลระบบ&lt;/font&gt;" style="text;strokeColor=none;align=center;fillColor=none;html=1;verticalAlign=middle;whiteSpace=wrap;rounded=0;" vertex="1" parent="1">
          <mxGeometry x="50" y="399" width="100" height="30" as="geometry" />
        </mxCell>
        <mxCell id="hlfoo49b2QJRz_j54Fa--8" value="&lt;font style=&quot;font-size: 16px;&quot;&gt;ลูกค้า&lt;/font&gt;" style="text;strokeColor=none;align=center;fillColor=none;html=1;verticalAlign=middle;whiteSpace=wrap;rounded=0;" vertex="1" parent="1">
          <mxGeometry x="1035" y="399" width="70" height="30" as="geometry" />
        </mxCell>
        <mxCell id="hlfoo49b2QJRz_j54Fa--10" value="" style="endArrow=classic;html=1;rounded=0;strokeColor=#000000;exitX=1;exitY=0.25;exitDx=0;exitDy=0;entryX=0;entryY=0.309;entryDx=0;entryDy=0;entryPerimeter=0;" edge="1" parent="1" source="hlfoo49b2QJRz_j54Fa--2" target="hlfoo49b2QJRz_j54Fa--72">
          <mxGeometry width="50" height="50" relative="1" as="geometry">
            <mxPoint x="180" y="399" as="sourcePoint" />
            <mxPoint x="540" y="402" as="targetPoint" />
          </mxGeometry>
        </mxCell>
        <mxCell id="hlfoo49b2QJRz_j54Fa--11" value="ข้อมูลผู้ใช้งาน" style="text;strokeColor=none;align=center;fillColor=none;html=1;verticalAlign=middle;whiteSpace=wrap;rounded=0;" vertex="1" parent="1">
          <mxGeometry x="307.5" y="369" width="75" height="30" as="geometry" />
        </mxCell>
        <mxCell id="hlfoo49b2QJRz_j54Fa--15" value="ข้อมูลสินค้า" style="text;strokeColor=none;align=center;fillColor=none;html=1;verticalAlign=middle;whiteSpace=wrap;rounded=0;" vertex="1" parent="1">
          <mxGeometry x="300" y="339" width="90" height="30" as="geometry" />
        </mxCell>
        <mxCell id="hlfoo49b2QJRz_j54Fa--17" value="" style="endArrow=classic;html=1;rounded=0;exitX=0.834;exitY=0.007;exitDx=0;exitDy=0;exitPerimeter=0;" edge="1" parent="1" source="hlfoo49b2QJRz_j54Fa--2">
          <mxGeometry width="50" height="50" relative="1" as="geometry">
            <mxPoint x="148.57" y="379" as="sourcePoint" />
            <mxPoint x="560" y="360" as="targetPoint" />
            <Array as="points">
              <mxPoint x="147" y="342" />
              <mxPoint x="392" y="339" />
              <mxPoint x="560" y="342" />
            </Array>
          </mxGeometry>
        </mxCell>
        <mxCell id="hlfoo49b2QJRz_j54Fa--20" value="" style="endArrow=classic;html=1;rounded=0;" edge="1" parent="1">
          <mxGeometry width="50" height="50" relative="1" as="geometry">
            <mxPoint x="135" y="389" as="sourcePoint" />
            <mxPoint x="577" y="360" as="targetPoint" />
            <Array as="points">
              <mxPoint x="135" y="310" />
              <mxPoint x="577" y="310" />
            </Array>
          </mxGeometry>
        </mxCell>
        <mxCell id="hlfoo49b2QJRz_j54Fa--21" value="" style="endArrow=classic;html=1;rounded=0;exitX=0.59;exitY=-0.021;exitDx=0;exitDy=0;exitPerimeter=0;" edge="1" parent="1">
          <mxGeometry width="50" height="50" relative="1" as="geometry">
            <mxPoint x="124" y="388" as="sourcePoint" />
            <mxPoint x="593" y="360" as="targetPoint" />
            <Array as="points">
              <mxPoint x="124" y="280" />
              <mxPoint x="593" y="280" />
            </Array>
          </mxGeometry>
        </mxCell>
        <mxCell id="hlfoo49b2QJRz_j54Fa--22" value="ข้อมูลหมวดหมู่สินค้า" style="text;strokeColor=none;align=center;fillColor=none;html=1;verticalAlign=middle;whiteSpace=wrap;rounded=0;" vertex="1" parent="1">
          <mxGeometry x="292.5" y="309" width="110" height="30" as="geometry" />
        </mxCell>
        <mxCell id="hlfoo49b2QJRz_j54Fa--25" value="" style="endArrow=classic;html=1;rounded=0;entryX=0.018;entryY=0.066;entryDx=0;entryDy=0;entryPerimeter=0;" edge="1" parent="1" target="hlfoo49b2QJRz_j54Fa--72">
          <mxGeometry width="50" height="50" relative="1" as="geometry">
            <mxPoint x="159" y="389" as="sourcePoint" />
            <mxPoint x="524" y="370" as="targetPoint" />
            <Array as="points">
              <mxPoint x="160" y="370" />
            </Array>
          </mxGeometry>
        </mxCell>
        <mxCell id="hlfoo49b2QJRz_j54Fa--35" value="ข้อมูลคำสั่งซื้อ" style="text;strokeColor=none;align=center;fillColor=none;html=1;verticalAlign=middle;whiteSpace=wrap;rounded=0;" vertex="1" parent="1">
          <mxGeometry x="285" y="279" width="120" height="30" as="geometry" />
        </mxCell>
        <mxCell id="hlfoo49b2QJRz_j54Fa--36" value="" style="endArrow=classic;html=1;rounded=0;exitX=0;exitY=0.75;exitDx=0;exitDy=0;" edge="1" parent="1" source="hlfoo49b2QJRz_j54Fa--72">
          <mxGeometry width="50" height="50" relative="1" as="geometry">
            <mxPoint x="490" y="459" as="sourcePoint" />
            <mxPoint x="152" y="440" as="targetPoint" />
            <Array as="points">
              <mxPoint x="152" y="460" />
            </Array>
          </mxGeometry>
        </mxCell>
        <mxCell id="hlfoo49b2QJRz_j54Fa--38" value="ข้อมูลูกค้า" style="text;strokeColor=none;align=center;fillColor=none;html=1;verticalAlign=middle;whiteSpace=wrap;rounded=0;" vertex="1" parent="1">
          <mxGeometry x="297.5" y="249" width="100" height="30" as="geometry" />
        </mxCell>
        <mxCell id="hlfoo49b2QJRz_j54Fa--45" value="รายงานสรุปรายได้" style="text;strokeColor=none;align=center;fillColor=none;html=1;verticalAlign=middle;whiteSpace=wrap;rounded=0;" vertex="1" parent="1">
          <mxGeometry x="290" y="429" width="110" height="30" as="geometry" />
        </mxCell>
        <mxCell id="hlfoo49b2QJRz_j54Fa--46" value="" style="endArrow=classic;html=1;rounded=0;" edge="1" parent="1">
          <mxGeometry width="50" height="50" relative="1" as="geometry">
            <mxPoint x="543" y="489" as="sourcePoint" />
            <mxPoint x="140" y="440" as="targetPoint" />
            <Array as="points">
              <mxPoint x="140" y="490" />
            </Array>
          </mxGeometry>
        </mxCell>
        <mxCell id="hlfoo49b2QJRz_j54Fa--47" value="รายงานสรุปคำสั่งซื้อ" style="text;strokeColor=none;align=center;fillColor=none;html=1;verticalAlign=middle;whiteSpace=wrap;rounded=0;" vertex="1" parent="1">
          <mxGeometry x="287.5" y="459" width="120" height="30" as="geometry" />
        </mxCell>
        <mxCell id="hlfoo49b2QJRz_j54Fa--48" value="รายงานสรุปลูกค้า" style="text;strokeColor=none;align=center;fillColor=none;html=1;verticalAlign=middle;whiteSpace=wrap;rounded=0;" vertex="1" parent="1">
          <mxGeometry x="297.5" y="489" width="100" height="30" as="geometry" />
        </mxCell>
        <mxCell id="hlfoo49b2QJRz_j54Fa--49" value="" style="endArrow=classic;html=1;rounded=0;exitX=0.082;exitY=1.012;exitDx=0;exitDy=0;exitPerimeter=0;" edge="1" parent="1" source="hlfoo49b2QJRz_j54Fa--72">
          <mxGeometry width="50" height="50" relative="1" as="geometry">
            <mxPoint x="550" y="516" as="sourcePoint" />
            <mxPoint x="128.89" y="439" as="targetPoint" />
            <Array as="points">
              <mxPoint x="550" y="516" />
              <mxPoint x="130" y="516" />
            </Array>
          </mxGeometry>
        </mxCell>
        <mxCell id="hlfoo49b2QJRz_j54Fa--50" value="รายงานสรุปสินค้า" style="text;strokeColor=none;align=center;fillColor=none;html=1;verticalAlign=middle;whiteSpace=wrap;rounded=0;" vertex="1" parent="1">
          <mxGeometry x="297.5" y="519" width="100" height="30" as="geometry" />
        </mxCell>
        <mxCell id="hlfoo49b2QJRz_j54Fa--51" value="" style="endArrow=classic;html=1;rounded=0;exitX=0.135;exitY=1.012;exitDx=0;exitDy=0;exitPerimeter=0;" edge="1" parent="1" source="hlfoo49b2QJRz_j54Fa--72">
          <mxGeometry width="50" height="50" relative="1" as="geometry">
            <mxPoint x="538.048" y="519.9680000000001" as="sourcePoint" />
            <mxPoint x="120" y="439" as="targetPoint" />
            <Array as="points">
              <mxPoint x="563" y="550" />
              <mxPoint x="120" y="550" />
            </Array>
          </mxGeometry>
        </mxCell>
        <mxCell id="hlfoo49b2QJRz_j54Fa--52" value="รายงานสรุปยอดขาย" style="text;strokeColor=none;align=center;fillColor=none;html=1;verticalAlign=middle;whiteSpace=wrap;rounded=0;" vertex="1" parent="1">
          <mxGeometry x="265" y="549" width="170" height="30" as="geometry" />
        </mxCell>
        <mxCell id="hlfoo49b2QJRz_j54Fa--53" value="" style="endArrow=classic;html=1;rounded=0;exitX=0.177;exitY=1.019;exitDx=0;exitDy=0;exitPerimeter=0;" edge="1" parent="1" source="hlfoo49b2QJRz_j54Fa--72">
          <mxGeometry width="50" height="50" relative="1" as="geometry">
            <mxPoint x="552.1279999999997" y="528.0640000000001" as="sourcePoint" />
            <mxPoint x="110" y="438" as="targetPoint" />
            <Array as="points">
              <mxPoint x="570" y="580" />
              <mxPoint x="110" y="580" />
            </Array>
          </mxGeometry>
        </mxCell>
        <mxCell id="hlfoo49b2QJRz_j54Fa--54" value="รายการสินค้า" style="text;strokeColor=none;align=center;fillColor=none;html=1;verticalAlign=middle;whiteSpace=wrap;rounded=0;" vertex="1" parent="1">
          <mxGeometry x="287.5" y="579" width="120" height="30" as="geometry" />
        </mxCell>
        <mxCell id="hlfoo49b2QJRz_j54Fa--55" value="" style="endArrow=classic;html=1;rounded=0;exitX=0.212;exitY=1;exitDx=0;exitDy=0;exitPerimeter=0;" edge="1" parent="1" source="hlfoo49b2QJRz_j54Fa--72">
          <mxGeometry width="50" height="50" relative="1" as="geometry">
            <mxPoint x="566.3839999999998" y="531.5840000000001" as="sourcePoint" />
            <mxPoint x="99.44" y="439" as="targetPoint" />
            <Array as="points">
              <mxPoint x="580" y="610" />
              <mxPoint x="100" y="610" />
            </Array>
          </mxGeometry>
        </mxCell>
        <mxCell id="hlfoo49b2QJRz_j54Fa--56" value="รายการหมวดหมู่สินค้า" style="text;strokeColor=none;align=center;fillColor=none;html=1;verticalAlign=middle;whiteSpace=wrap;rounded=0;" vertex="1" parent="1">
          <mxGeometry x="285" y="609" width="120" height="30" as="geometry" />
        </mxCell>
        <mxCell id="hlfoo49b2QJRz_j54Fa--57" value="" style="endArrow=classic;html=1;rounded=0;exitX=0.25;exitY=1;exitDx=0;exitDy=0;" edge="1" parent="1" source="hlfoo49b2QJRz_j54Fa--72">
          <mxGeometry width="50" height="50" relative="1" as="geometry">
            <mxPoint x="578" y="530" as="sourcePoint" />
            <mxPoint x="90" y="439" as="targetPoint" />
            <Array as="points">
              <mxPoint x="589" y="640" />
              <mxPoint x="90" y="640" />
            </Array>
          </mxGeometry>
        </mxCell>
        <mxCell id="hlfoo49b2QJRz_j54Fa--58" value="รายการคำสั่งซื้อ" style="text;strokeColor=none;align=center;fillColor=none;html=1;verticalAlign=middle;whiteSpace=wrap;rounded=0;" vertex="1" parent="1">
          <mxGeometry x="297.5" y="639" width="100" height="30" as="geometry" />
        </mxCell>
        <mxCell id="hlfoo49b2QJRz_j54Fa--59" value="" style="endArrow=classic;html=1;rounded=0;exitX=0.29;exitY=1.005;exitDx=0;exitDy=0;exitPerimeter=0;" edge="1" parent="1" source="hlfoo49b2QJRz_j54Fa--72">
          <mxGeometry width="50" height="50" relative="1" as="geometry">
            <mxPoint x="589" y="530" as="sourcePoint" />
            <mxPoint x="80" y="439" as="targetPoint" />
            <Array as="points">
              <mxPoint x="600" y="670" />
              <mxPoint x="80" y="670" />
            </Array>
          </mxGeometry>
        </mxCell>
        <mxCell id="hlfoo49b2QJRz_j54Fa--60" value="รายการลูกค้า" style="text;strokeColor=none;align=center;fillColor=none;html=1;verticalAlign=middle;whiteSpace=wrap;rounded=0;" vertex="1" parent="1">
          <mxGeometry x="305" y="669" width="90" height="30" as="geometry" />
        </mxCell>
        <mxCell id="hlfoo49b2QJRz_j54Fa--72" value="" style="html=1;dashed=0;whiteSpace=wrap;strokeColor=default;align=center;verticalAlign=middle;fontFamily=Helvetica;fontSize=12;fontColor=default;startSize=20;fillColor=#ffffff;rounded=1;" vertex="1" parent="1">
          <mxGeometry x="530" y="362" width="236" height="128" as="geometry" />
        </mxCell>
        <mxCell id="hlfoo49b2QJRz_j54Fa--73" value="0" style="text;strokeColor=none;align=center;fillColor=none;html=1;verticalAlign=middle;whiteSpace=wrap;rounded=0;fontSize=12;fontFamily=Helvetica;fontColor=default;" vertex="1" parent="1">
          <mxGeometry x="630.5" y="362" width="35" height="30" as="geometry" />
        </mxCell>
        <mxCell id="hlfoo49b2QJRz_j54Fa--74" value="" style="endArrow=none;html=1;rounded=0;fontFamily=Helvetica;fontSize=12;fontColor=default;startSize=20;entryX=1;entryY=0.25;entryDx=0;entryDy=0;exitX=0;exitY=0.25;exitDx=0;exitDy=0;" edge="1" parent="1" source="hlfoo49b2QJRz_j54Fa--72" target="hlfoo49b2QJRz_j54Fa--72">
          <mxGeometry width="50" height="50" relative="1" as="geometry">
            <mxPoint x="550" y="413" as="sourcePoint" />
            <mxPoint x="600" y="363" as="targetPoint" />
            <Array as="points" />
          </mxGeometry>
        </mxCell>
        <mxCell id="hlfoo49b2QJRz_j54Fa--76" value="&lt;b style=&quot;font-size: 15px;&quot;&gt;แพลตฟอร์มอีคอมเมิร์ซและระบบบริหารจัดการสำหรับหนังสือตามรูปแบบ &lt;span style=&quot;font-family: &amp;quot;TH SarabunPSK&amp;quot;, sans-serif;&quot;&gt;B&lt;span lang=&quot;TH&quot;&gt;2&lt;/span&gt;C&lt;/span&gt;&lt;/b&gt;" style="text;strokeColor=none;align=center;fillColor=none;html=1;verticalAlign=middle;whiteSpace=wrap;rounded=0;fontSize=12;fontFamily=Helvetica;fontColor=default;" vertex="1" parent="1">
          <mxGeometry x="546.03" y="399" width="203.95" height="79.5" as="geometry" />
        </mxCell>
        <mxCell id="hlfoo49b2QJRz_j54Fa--77" value="" style="endArrow=classic;html=1;rounded=0;fontFamily=Helvetica;fontSize=12;fontColor=default;startSize=20;" edge="1" parent="1">
          <mxGeometry width="50" height="50" relative="1" as="geometry">
            <mxPoint x="613" y="490" as="sourcePoint" />
            <mxPoint x="70" y="439" as="targetPoint" />
            <Array as="points">
              <mxPoint x="613" y="700" />
              <mxPoint x="70" y="700" />
            </Array>
          </mxGeometry>
        </mxCell>
        <mxCell id="hlfoo49b2QJRz_j54Fa--79" value="" style="endArrow=classic;html=1;rounded=0;fontFamily=Helvetica;fontSize=12;fontColor=default;startSize=20;" edge="1" parent="1">
          <mxGeometry width="50" height="50" relative="1" as="geometry">
            <mxPoint x="767" y="398" as="sourcePoint" />
            <mxPoint x="1000" y="397.67" as="targetPoint" />
          </mxGeometry>
        </mxCell>
        <mxCell id="hlfoo49b2QJRz_j54Fa--82" value="" style="endArrow=classic;html=1;rounded=0;fontFamily=Helvetica;fontSize=12;fontColor=default;startSize=20;" edge="1" parent="1">
          <mxGeometry width="50" height="50" relative="1" as="geometry">
            <mxPoint x="1010" y="440.00000000000006" as="sourcePoint" />
            <mxPoint x="766" y="460" as="targetPoint" />
            <Array as="points">
              <mxPoint x="1010" y="460" />
            </Array>
          </mxGeometry>
        </mxCell>
        <mxCell id="hlfoo49b2QJRz_j54Fa--83" value="รายการข้อมูลส่วนตัว" style="text;strokeColor=none;align=center;fillColor=none;html=1;verticalAlign=middle;whiteSpace=wrap;rounded=0;fontSize=12;fontFamily=Helvetica;fontColor=default;" vertex="1" parent="1">
          <mxGeometry x="830" y="279" width="110" height="30" as="geometry" />
        </mxCell>
        <mxCell id="hlfoo49b2QJRz_j54Fa--84" value="ข้อมูลเข้าสู่ระบบ" style="text;strokeColor=none;align=center;fillColor=none;html=1;verticalAlign=middle;whiteSpace=wrap;rounded=0;fontSize=12;fontFamily=Helvetica;fontColor=default;" vertex="1" parent="1">
          <mxGeometry x="840" y="429" width="90" height="30" as="geometry" />
        </mxCell>
        <mxCell id="hlfoo49b2QJRz_j54Fa--85" value="ข้อมูลวิธีการชำระเงิน" style="text;strokeColor=none;align=center;fillColor=none;html=1;verticalAlign=middle;whiteSpace=wrap;rounded=0;fontSize=12;fontFamily=Helvetica;fontColor=default;" vertex="1" parent="1">
          <mxGeometry x="830" y="550" width="120" height="30" as="geometry" />
        </mxCell>
        <mxCell id="hlfoo49b2QJRz_j54Fa--86" value="" style="endArrow=classic;html=1;rounded=0;fontFamily=Helvetica;fontSize=12;fontColor=default;startSize=20;" edge="1" parent="1">
          <mxGeometry width="50" height="50" relative="1" as="geometry">
            <mxPoint x="1020" y="440" as="sourcePoint" />
            <mxPoint x="760" y="486" as="targetPoint" />
            <Array as="points">
              <mxPoint x="1020" y="486" />
            </Array>
          </mxGeometry>
        </mxCell>
        <mxCell id="hlfoo49b2QJRz_j54Fa--87" value="" style="endArrow=classic;html=1;rounded=0;fontFamily=Helvetica;fontSize=12;fontColor=default;startSize=20;" edge="1" parent="1">
          <mxGeometry width="50" height="50" relative="1" as="geometry">
            <mxPoint x="761" y="368" as="sourcePoint" />
            <mxPoint x="1010" y="389" as="targetPoint" />
            <Array as="points">
              <mxPoint x="1010" y="368" />
            </Array>
          </mxGeometry>
        </mxCell>
        <mxCell id="hlfoo49b2QJRz_j54Fa--88" value="ข้อมูลที่อยู่" style="text;strokeColor=none;align=center;fillColor=none;html=1;verticalAlign=middle;whiteSpace=wrap;rounded=0;fontSize=12;fontFamily=Helvetica;fontColor=default;" vertex="1" parent="1">
          <mxGeometry x="845" y="489" width="80" height="30" as="geometry" />
        </mxCell>
        <mxCell id="hlfoo49b2QJRz_j54Fa--89" value="" style="endArrow=classic;html=1;rounded=0;fontFamily=Helvetica;fontSize=12;fontColor=default;startSize=20;entryX=0.934;entryY=0.993;entryDx=0;entryDy=0;entryPerimeter=0;" edge="1" parent="1" target="hlfoo49b2QJRz_j54Fa--72">
          <mxGeometry width="50" height="50" relative="1" as="geometry">
            <mxPoint x="1030" y="439" as="sourcePoint" />
            <mxPoint x="730" y="520" as="targetPoint" />
            <Array as="points">
              <mxPoint x="1030" y="520" />
              <mxPoint x="750" y="520" />
            </Array>
          </mxGeometry>
        </mxCell>
        <mxCell id="hlfoo49b2QJRz_j54Fa--90" value="ข้อมูลคำสั่งซื้อ" style="text;strokeColor=none;align=center;fillColor=none;html=1;verticalAlign=middle;whiteSpace=wrap;rounded=0;fontSize=12;fontFamily=Helvetica;fontColor=default;" vertex="1" parent="1">
          <mxGeometry x="845" y="520" width="90" height="30" as="geometry" />
        </mxCell>
        <mxCell id="hlfoo49b2QJRz_j54Fa--91" value="" style="endArrow=classic;html=1;rounded=0;fontFamily=Helvetica;fontSize=12;fontColor=default;startSize=20;entryX=0.889;entryY=1.01;entryDx=0;entryDy=0;entryPerimeter=0;" edge="1" parent="1" target="hlfoo49b2QJRz_j54Fa--72">
          <mxGeometry width="50" height="50" relative="1" as="geometry">
            <mxPoint x="1040" y="439" as="sourcePoint" />
            <mxPoint x="710" y="550" as="targetPoint" />
            <Array as="points">
              <mxPoint x="1040" y="550" />
              <mxPoint x="740" y="550" />
            </Array>
          </mxGeometry>
        </mxCell>
        <mxCell id="hlfoo49b2QJRz_j54Fa--92" value="รายการที่อยู่" style="text;strokeColor=none;align=center;fillColor=none;html=1;verticalAlign=middle;whiteSpace=wrap;rounded=0;fontSize=12;fontFamily=Helvetica;fontColor=default;" vertex="1" parent="1">
          <mxGeometry x="845" y="339" width="80" height="30" as="geometry" />
        </mxCell>
        <mxCell id="hlfoo49b2QJRz_j54Fa--93" value="" style="endArrow=classic;html=1;rounded=0;fontFamily=Helvetica;fontSize=12;fontColor=default;startSize=20;entryX=0.16;entryY=-0.003;entryDx=0;entryDy=0;entryPerimeter=0;" edge="1" parent="1" target="hlfoo49b2QJRz_j54Fa--1">
          <mxGeometry width="50" height="50" relative="1" as="geometry">
            <mxPoint x="750" y="362" as="sourcePoint" />
            <mxPoint x="1040" y="340" as="targetPoint" />
            <Array as="points">
              <mxPoint x="750" y="340" />
              <mxPoint x="1022" y="340" />
            </Array>
          </mxGeometry>
        </mxCell>
        <mxCell id="hlfoo49b2QJRz_j54Fa--94" value="รายการคำสั่งซื้อ" style="text;strokeColor=none;align=center;fillColor=none;html=1;verticalAlign=middle;whiteSpace=wrap;rounded=0;fontSize=12;fontFamily=Helvetica;fontColor=default;" vertex="1" parent="1">
          <mxGeometry x="835" y="309" width="100" height="30" as="geometry" />
        </mxCell>
        <mxCell id="EOjVual6jyeFLFW5djN4-1" value="ข้อมูลสมัครสมาชิก" style="text;strokeColor=none;align=center;fillColor=none;html=1;verticalAlign=middle;whiteSpace=wrap;rounded=0;" vertex="1" parent="1">
          <mxGeometry x="830" y="458" width="110" height="30" as="geometry" />
        </mxCell>
        <mxCell id="EOjVual6jyeFLFW5djN4-2" value="" style="endArrow=classic;html=1;rounded=0;entryX=0.84;entryY=1.01;entryDx=0;entryDy=0;entryPerimeter=0;" edge="1" parent="1" target="hlfoo49b2QJRz_j54Fa--72">
          <mxGeometry width="50" height="50" relative="1" as="geometry">
            <mxPoint x="1050" y="439" as="sourcePoint" />
            <mxPoint x="700" y="580" as="targetPoint" />
            <Array as="points">
              <mxPoint x="1050" y="580" />
              <mxPoint x="728" y="580" />
            </Array>
          </mxGeometry>
        </mxCell>
        <mxCell id="EOjVual6jyeFLFW5djN4-3" value="ข้อมูลสินค้าในตะกล้า" style="text;strokeColor=none;align=center;fillColor=none;html=1;verticalAlign=middle;whiteSpace=wrap;rounded=0;" vertex="1" parent="1">
          <mxGeometry x="830" y="580" width="120" height="30" as="geometry" />
        </mxCell>
        <mxCell id="EOjVual6jyeFLFW5djN4-4" value="" style="endArrow=classic;html=1;rounded=0;" edge="1" parent="1">
          <mxGeometry width="50" height="50" relative="1" as="geometry">
            <mxPoint x="1060" y="439" as="sourcePoint" />
            <mxPoint x="718" y="490" as="targetPoint" />
            <Array as="points">
              <mxPoint x="1060" y="610" />
              <mxPoint x="718" y="610" />
            </Array>
          </mxGeometry>
        </mxCell>
        <mxCell id="EOjVual6jyeFLFW5djN4-5" value="ข้อมูลสินค้าที่ชอบ" style="text;strokeColor=none;align=center;fillColor=none;html=1;verticalAlign=middle;whiteSpace=wrap;rounded=0;" vertex="1" parent="1">
          <mxGeometry x="840" y="608" width="100" height="30" as="geometry" />
        </mxCell>
        <mxCell id="EOjVual6jyeFLFW5djN4-6" value="" style="endArrow=classic;html=1;rounded=0;" edge="1" parent="1">
          <mxGeometry width="50" height="50" relative="1" as="geometry">
            <mxPoint x="1069.66" y="439" as="sourcePoint" />
            <mxPoint x="707" y="490" as="targetPoint" />
            <Array as="points">
              <mxPoint x="1070" y="635" />
              <mxPoint x="707" y="635" />
            </Array>
          </mxGeometry>
        </mxCell>
        <mxCell id="EOjVual6jyeFLFW5djN4-7" value="" style="endArrow=classic;html=1;rounded=0;entryX=0.25;entryY=0;entryDx=0;entryDy=0;exitX=0.905;exitY=-0.002;exitDx=0;exitDy=0;exitPerimeter=0;" edge="1" parent="1" source="hlfoo49b2QJRz_j54Fa--72" target="hlfoo49b2QJRz_j54Fa--1">
          <mxGeometry width="50" height="50" relative="1" as="geometry">
            <mxPoint x="744" y="360" as="sourcePoint" />
            <mxPoint x="1040" y="300" as="targetPoint" />
            <Array as="points">
              <mxPoint x="744" y="310" />
              <mxPoint x="1035" y="310" />
            </Array>
          </mxGeometry>
        </mxCell>
        <mxCell id="EOjVual6jyeFLFW5djN4-8" value="รายการสินค้าในตะกล้า" style="text;strokeColor=none;align=center;fillColor=none;html=1;verticalAlign=middle;whiteSpace=wrap;rounded=0;" vertex="1" parent="1">
          <mxGeometry x="825" y="249" width="130" height="30" as="geometry" />
        </mxCell>
        <mxCell id="EOjVual6jyeFLFW5djN4-9" value="" style="endArrow=classic;html=1;rounded=0;entryX=0.332;entryY=-0.027;entryDx=0;entryDy=0;entryPerimeter=0;" edge="1" parent="1" target="hlfoo49b2QJRz_j54Fa--1">
          <mxGeometry width="50" height="50" relative="1" as="geometry">
            <mxPoint x="737" y="362" as="sourcePoint" />
            <mxPoint x="1060" y="280" as="targetPoint" />
            <Array as="points">
              <mxPoint x="737" y="280" />
              <mxPoint x="1046" y="280" />
            </Array>
          </mxGeometry>
        </mxCell>
        <mxCell id="EOjVual6jyeFLFW5djN4-10" value="รายการสินค้าที่ชอบ" style="text;strokeColor=none;align=center;fillColor=none;html=1;verticalAlign=middle;whiteSpace=wrap;rounded=0;" vertex="1" parent="1">
          <mxGeometry x="830" y="223" width="120" height="30" as="geometry" />
        </mxCell>
        <mxCell id="EOjVual6jyeFLFW5djN4-11" value="" style="endArrow=classic;html=1;rounded=0;entryX=0.419;entryY=-0.016;entryDx=0;entryDy=0;entryPerimeter=0;" edge="1" parent="1" target="hlfoo49b2QJRz_j54Fa--1">
          <mxGeometry width="50" height="50" relative="1" as="geometry">
            <mxPoint x="729.9" y="362" as="sourcePoint" />
            <mxPoint x="1070" y="250" as="targetPoint" />
            <Array as="points">
              <mxPoint x="730" y="250" />
              <mxPoint x="1060" y="250" />
            </Array>
          </mxGeometry>
        </mxCell>
        <mxCell id="EOjVual6jyeFLFW5djN4-12" value="รายการสินค้า" style="text;strokeColor=none;align=center;fillColor=none;html=1;verticalAlign=middle;whiteSpace=wrap;rounded=0;" vertex="1" parent="1">
          <mxGeometry x="845" y="369" width="80" height="30" as="geometry" />
        </mxCell>
        <mxCell id="EOjVual6jyeFLFW5djN4-13" value="ข้อมูลค้นหา" style="text;strokeColor=none;align=center;fillColor=none;html=1;verticalAlign=middle;whiteSpace=wrap;rounded=0;" vertex="1" parent="1">
          <mxGeometry x="840" y="638" width="100" height="30" as="geometry" />
        </mxCell>
        <mxCell id="EOjVual6jyeFLFW5djN4-14" value="" style="endArrow=classic;html=1;rounded=0;exitX=0.557;exitY=0.988;exitDx=0;exitDy=0;exitPerimeter=0;" edge="1" parent="1" source="hlfoo49b2QJRz_j54Fa--1">
          <mxGeometry width="50" height="50" relative="1" as="geometry">
            <mxPoint x="1090" y="664" as="sourcePoint" />
            <mxPoint x="696" y="490" as="targetPoint" />
            <Array as="points">
              <mxPoint x="1080" y="664" />
              <mxPoint x="696" y="664" />
            </Array>
          </mxGeometry>
        </mxCell>
        <mxCell id="EOjVual6jyeFLFW5djN4-15" value="" style="endArrow=classic;html=1;rounded=0;entryX=0.5;entryY=0;entryDx=0;entryDy=0;" edge="1" parent="1" target="hlfoo49b2QJRz_j54Fa--1">
          <mxGeometry width="50" height="50" relative="1" as="geometry">
            <mxPoint x="723" y="362" as="sourcePoint" />
            <mxPoint x="1090" y="224" as="targetPoint" />
            <Array as="points">
              <mxPoint x="723" y="224" />
              <mxPoint x="1070" y="224" />
            </Array>
          </mxGeometry>
        </mxCell>
        <mxCell id="EOjVual6jyeFLFW5djN4-16" value="รายการค้นหา" style="text;strokeColor=none;align=center;fillColor=none;html=1;verticalAlign=middle;whiteSpace=wrap;rounded=0;" vertex="1" parent="1">
          <mxGeometry x="835" y="193" width="110" height="30" as="geometry" />
        </mxCell>
        <mxCell id="EOjVual6jyeFLFW5djN4-17" value="" style="endArrow=classic;html=1;rounded=0;" edge="1" parent="1">
          <mxGeometry width="50" height="50" relative="1" as="geometry">
            <mxPoint x="716" y="362" as="sourcePoint" />
            <mxPoint x="1080" y="389" as="targetPoint" />
            <Array as="points">
              <mxPoint x="716" y="190" />
              <mxPoint x="1080" y="190" />
            </Array>
          </mxGeometry>
        </mxCell>
        <mxCell id="EOjVual6jyeFLFW5djN4-19" value="รายการรีวิวสินค้า" style="text;strokeColor=none;align=center;fillColor=none;html=1;verticalAlign=middle;whiteSpace=wrap;rounded=0;" vertex="1" parent="1">
          <mxGeometry x="830" y="159" width="115" height="30" as="geometry" />
        </mxCell>
        <mxCell id="EOjVual6jyeFLFW5djN4-20" value="" style="endArrow=classic;html=1;rounded=0;exitX=0.626;exitY=1.007;exitDx=0;exitDy=0;exitPerimeter=0;" edge="1" parent="1" source="hlfoo49b2QJRz_j54Fa--1">
          <mxGeometry width="50" height="50" relative="1" as="geometry">
            <mxPoint x="1100" y="700" as="sourcePoint" />
            <mxPoint x="685" y="490" as="targetPoint" />
            <Array as="points">
              <mxPoint x="1090" y="700" />
              <mxPoint x="685" y="700" />
            </Array>
          </mxGeometry>
        </mxCell>
        <mxCell id="EOjVual6jyeFLFW5djN4-21" value="ข้อมูลรีวิวสินค้า" style="text;strokeColor=none;align=center;fillColor=none;html=1;verticalAlign=middle;whiteSpace=wrap;rounded=0;" vertex="1" parent="1">
          <mxGeometry x="842.5" y="668" width="90" height="30" as="geometry" />
        </mxCell>
        <mxCell id="TOj4RnLwgFYQundT9fhY-1" value="ข้อมูลค้นหา" style="text;strokeColor=none;align=center;fillColor=none;html=1;verticalAlign=middle;whiteSpace=wrap;rounded=0;" vertex="1" parent="1">
          <mxGeometry x="310" y="219" width="70" height="30" as="geometry" />
        </mxCell>
        <mxCell id="TOj4RnLwgFYQundT9fhY-2" value="" style="endArrow=classic;html=1;rounded=0;exitX=0.394;exitY=0.996;exitDx=0;exitDy=0;exitPerimeter=0;" edge="1" parent="1" source="hlfoo49b2QJRz_j54Fa--72">
          <mxGeometry width="50" height="50" relative="1" as="geometry">
            <mxPoint x="640" y="730" as="sourcePoint" />
            <mxPoint x="60" y="439" as="targetPoint" />
            <Array as="points">
              <mxPoint x="623" y="730" />
              <mxPoint x="60" y="730" />
            </Array>
          </mxGeometry>
        </mxCell>
        <mxCell id="TOj4RnLwgFYQundT9fhY-3" value="รายการค้นหา" style="text;strokeColor=none;align=center;fillColor=none;html=1;verticalAlign=middle;whiteSpace=wrap;rounded=0;" vertex="1" parent="1">
          <mxGeometry x="305" y="699" width="80" height="30" as="geometry" />
        </mxCell>
      </root>
    </mxGraphModel>
  </diagram>
</mxfile>
